<svg width="76" height="102" viewBox="0 0 76 102" fill="none" xmlns="http://www.w3.org/2000/svg">
<path d="M71.2109 92.5615C72.0628 92.5615 72.8469 92.7712 73.5625 93.1914C74.2894 93.6116 74.8629 94.1853 75.2832 94.9121C75.7035 95.6277 75.9141 96.4118 75.9141 97.2637C75.9141 98.1042 75.7035 98.8883 75.2832 99.6152C74.8629 100.331 74.2894 100.904 73.5625 101.336C72.8469 101.756 72.0628 101.966 71.2109 101.966C70.3591 101.966 69.5697 101.756 68.8428 101.336C68.1272 100.904 67.5589 100.331 67.1387 99.6152C66.7184 98.8883 66.5088 98.1042 66.5088 97.2637C66.5088 96.4118 66.7184 95.6277 67.1387 94.9121C67.5703 94.1852 68.1448 93.6117 68.8604 93.1914C69.5871 92.7713 70.3706 92.5616 71.2109 92.5615ZM37.3721 92.7568C37.4932 92.763 37.613 92.7747 37.7314 92.79V94.7959H37.1348C35.7238 94.7964 34.5802 95.9405 34.5801 97.3516C34.5801 97.3803 34.584 97.409 34.585 97.4375H34.5811V101.951H32.5361V97.4365H32.5371L32.5352 97.3516C32.5352 94.811 34.5951 92.751 37.1357 92.751L37.3721 92.7568ZM26.1631 92.5449C27.0149 92.5449 27.7991 92.7546 28.5146 93.1748C29.2416 93.5951 29.8151 94.1695 30.2354 94.8965C30.6555 95.6119 30.8662 96.3954 30.8662 97.2471C30.8662 98.0876 30.6556 98.8717 30.2354 99.5986C29.8151 100.314 29.2415 100.888 28.5146 101.319C27.7991 101.74 27.015 101.95 26.1631 101.95C25.3113 101.95 24.5218 101.74 23.7949 101.319C23.0794 100.888 22.5111 100.314 22.0908 99.5986C21.6706 98.8717 21.4609 98.0876 21.4609 97.2471C21.461 96.3955 21.6708 95.6119 22.0908 94.8965C22.5225 94.1695 23.0969 93.5951 23.8125 93.1748C24.5392 92.7548 25.3228 92.545 26.1631 92.5449ZM64.4629 92.7559C64.584 92.762 64.7038 92.7737 64.8223 92.7891V94.7949H64.2256C62.8146 94.7954 61.6709 95.9395 61.6709 97.3506C61.6709 97.379 61.6749 97.4073 61.6758 97.4355H61.6699V101.95H59.626V97.4346H59.6279L59.626 97.3506C59.626 94.81 61.6859 92.75 64.2266 92.75L64.4629 92.7559ZM13.7422 89.0342C13.7535 89.0342 13.7588 89.0404 13.7588 89.0518C13.7701 89.0518 13.7764 89.057 13.7764 89.0684V93.7754C13.8382 93.7219 13.8997 93.6676 13.9639 93.6172C14.7021 93.0267 15.526 92.7314 16.4346 92.7314C17.0137 92.7315 17.5531 92.8963 18.0527 93.2256C18.5638 93.555 18.9726 94.0378 19.2793 94.6738C19.5973 95.2986 19.7568 96.0315 19.7568 96.8721V101.915C19.7568 101.926 19.7506 101.938 19.7393 101.949H17.5762V96.8721C17.5762 96.4065 17.4906 96.0258 17.3203 95.7305C17.1499 95.4238 16.9341 95.2017 16.6729 95.0654C16.4116 94.9178 16.1384 94.8447 15.8545 94.8447C15.4457 94.8448 15.0878 94.9293 14.7812 95.0996C14.4746 95.27 14.2306 95.5599 14.0488 95.9688C13.8671 96.3776 13.7764 96.9284 13.7764 97.6211V101.915C13.7764 101.926 13.7701 101.938 13.7588 101.949H11.5957V89.0518C11.6071 89.0404 11.6185 89.0342 11.6299 89.0342H13.7422ZM41.5859 90.04C41.5973 90.04 41.6035 90.0453 41.6035 90.0566C41.6146 90.0567 41.62 90.0622 41.6201 90.0732V92.749H43.9375C43.9488 92.749 43.9551 92.7543 43.9551 92.7656C43.966 92.7658 43.9715 92.7713 43.9717 92.7822V94.7422C43.9716 94.7535 43.9663 94.7651 43.9551 94.7764H41.6201V97.9795C41.6201 98.4677 41.6775 98.8423 41.791 99.1035C41.916 99.3648 42.1433 99.5524 42.4727 99.666C42.802 99.7795 43.2903 99.8369 43.9375 99.8369C43.9489 99.8369 43.9551 99.8422 43.9551 99.8535C43.966 99.8537 43.9715 99.8592 43.9717 99.8701V101.915C43.9717 101.926 43.9663 101.938 43.9551 101.949C43.9551 101.949 43.9489 101.949 43.9375 101.949C42.3929 101.938 41.2572 101.631 40.5303 101.029C39.8034 100.416 39.4395 99.5129 39.4395 98.3203V90.0566C39.4508 90.0453 39.4623 90.04 39.4736 90.04H41.5859ZM53.8838 89.1533C54.6561 89.1533 55.3548 89.3411 55.9795 89.7158C56.6042 90.0793 57.0932 90.5568 57.4453 91.1475C57.7973 91.738 57.9736 92.3514 57.9736 92.9873C57.9736 93.6119 57.7973 94.2252 57.4453 94.8271C57.0932 95.4178 56.6042 95.9068 55.9795 96.293C55.3549 96.6676 54.656 96.8545 53.8838 96.8545H51.9414V101.745C51.9413 101.756 51.9359 101.767 51.9248 101.778H49.6592V89.1709C49.6704 89.1597 49.6812 89.1535 49.6924 89.1533H53.8838ZM71.2109 94.5713C70.7114 94.5713 70.2741 94.6851 69.8994 94.9121C69.5247 95.1392 69.2347 95.4574 69.0303 95.8662C68.8372 96.2638 68.7402 96.7298 68.7402 97.2637C68.7402 97.7862 68.8424 98.2522 69.0469 98.6611C69.2513 99.07 69.536 99.3881 69.8994 99.6152C70.2741 99.8423 70.7114 99.956 71.2109 99.9561C71.7107 99.9561 72.1486 99.8424 72.5234 99.6152C72.8981 99.3881 73.1819 99.0699 73.375 98.6611C73.5795 98.2522 73.6816 97.7862 73.6816 97.2637C73.6816 96.7298 73.5795 96.2638 73.375 95.8662C73.1819 95.4575 72.8981 95.1392 72.5234 94.9121C72.1486 94.6849 71.7107 94.5713 71.2109 94.5713ZM26.1631 94.5557C25.6634 94.5557 25.2264 94.6693 24.8516 94.8965C24.4767 95.1237 24.1869 95.4417 23.9824 95.8506C23.7894 96.248 23.6924 96.7135 23.6924 97.2471C23.6924 97.7695 23.7946 98.2356 23.999 98.6445C24.2035 99.0534 24.4881 99.3715 24.8516 99.5986C25.2263 99.8257 25.6635 99.9394 26.1631 99.9395C26.6629 99.9395 27.1007 99.8258 27.4756 99.5986C27.8503 99.3715 28.1341 99.0533 28.3271 98.6445C28.5316 98.2356 28.6338 97.7696 28.6338 97.2471C28.6338 96.7135 28.5315 96.248 28.3271 95.8506C28.1341 95.4418 27.8502 95.1236 27.4756 94.8965C27.1007 94.6693 26.6629 94.5557 26.1631 94.5557Z" fill="white"/>
<path d="M0.672852 98.2955C0.672852 98.2841 0.672852 98.2784 0.672852 98.2784C0.68421 98.2671 0.695569 98.2614 0.706928 98.2614L2.90484 97.9547C2.91619 97.9547 2.92187 97.9604 2.92187 97.9717C2.93323 97.9717 2.93891 97.9774 2.93891 97.9888C3.04114 98.6589 3.38758 99.1758 3.97823 99.5392C4.56888 99.9027 5.21633 100.039 5.92057 99.9482C6.62481 99.8459 7.17003 99.5109 7.55622 98.9429C7.76068 98.6362 7.86859 98.3295 7.87994 98.0229C7.8913 97.7048 7.80043 97.4209 7.60734 97.171C7.4256 96.9211 7.16435 96.7337 6.82359 96.6087C6.56234 96.5178 6.06255 96.4213 5.32424 96.3191C5.17658 96.3077 4.77902 96.2509 4.13157 96.1487C3.30239 96.001 2.62655 95.5921 2.10405 94.9219C1.58155 94.2404 1.3203 93.468 1.3203 92.6048C1.3203 91.7415 1.61562 90.9861 2.20628 90.3387C2.85372 89.6117 3.68859 89.1801 4.71087 89.0438C5.74451 88.9075 6.72704 89.0892 7.65845 89.589C8.60122 90.0888 9.28274 90.8669 9.70302 91.9232C9.71437 91.9346 9.71437 91.946 9.70302 91.9573C9.70302 91.9573 9.69734 91.963 9.68598 91.9744L7.64141 92.7581C7.63005 92.7695 7.61869 92.7751 7.60734 92.7751C7.60734 92.7638 7.60166 92.7524 7.5903 92.7411C7.35177 92.1391 7.00532 91.7017 6.55098 91.4291C6.10799 91.1452 5.64228 91.0429 5.15386 91.1225C4.67679 91.1906 4.2622 91.4178 3.91008 91.804C3.66019 92.0766 3.53524 92.3833 3.53524 92.724C3.53524 93.0534 3.64315 93.3544 3.85897 93.627C4.07478 93.8883 4.35875 94.0644 4.71087 94.1552C4.83581 94.1893 5.00051 94.2234 5.20497 94.2575C5.40943 94.2802 5.61388 94.3029 5.81834 94.3256C6.61345 94.3938 7.21546 94.5017 7.62437 94.6493C8.48764 94.9674 9.13508 95.4331 9.56671 96.0464C10.0097 96.6598 10.2198 97.3413 10.1971 98.091C10.1858 98.8293 9.94723 99.5336 9.48152 100.204C8.78864 101.215 7.76636 101.8 6.41467 101.959C5.07435 102.129 3.82489 101.873 2.6663 101.192C1.51907 100.51 0.854591 99.5449 0.672852 98.2955Z" fill="white"/>
<path d="M54.415 91.656C52.8552 90.7773 52.04 91.2096 52.04 92.9943C52.04 94.7781 52.8317 95.2245 54.415 94.3326C55.9983 93.4398 55.9983 92.5479 54.415 91.656Z" fill="#130A03"/>
<rect x="1.11995" y="1.13265" width="74.2035" height="74.2035" rx="15.5327" fill="#31211A" stroke="#E09F87" stroke-width="0.796548"/>
<path fill-rule="evenodd" clip-rule="evenodd" d="M31.0049 52.3726V53.907C31.0049 54.0473 31.0377 54.1251 31.0693 54.1777C31.1085 54.2429 31.1756 54.3142 31.2721 54.3699C31.3686 54.4256 31.4639 54.4481 31.54 54.4494C31.6014 54.4505 31.6852 54.44 31.8066 54.3699C31.8066 54.3699 47.0931 45.5757 52.0703 42.6706C57.0474 39.7655 57.1475 37.761 57.1475 37.761C57.1474 38.3244 57.1496 38.9051 57.1516 39.4693V39.4701L57.1516 39.4738V39.4741V39.4745V39.4749C57.1556 40.5551 57.1593 41.5746 57.1474 42.2974C57.1183 44.0675 56.2277 45.8251 54.4756 46.8367L34.212 58.536C30.6485 60.5934 26.1942 58.0217 26.1942 53.907L26.1942 26.8068L24.8634 26.0384C24.7419 25.9683 24.6581 25.9578 24.5968 25.9589C24.5207 25.9602 24.4254 25.9827 24.3289 26.0384C24.2324 26.0941 24.1653 26.1654 24.1261 26.2306C24.0944 26.2832 24.0616 26.361 24.0616 26.5013C24.0616 26.5013 24.0344 44.1369 24.0617 49.8998C24.089 55.6627 25.775 56.7516 25.775 56.7516C25.2857 56.4691 24.7804 56.1798 24.2895 55.8988L24.2893 55.8987L24.2891 55.8985C23.3514 55.3617 22.4664 54.8551 21.8463 54.4833C20.3279 53.5731 19.2511 51.923 19.2511 49.8998L19.251 26.5013C19.251 22.3866 23.7053 19.8149 27.2687 21.8723L50.7402 35.4236L52.0708 34.6553C52.1923 34.5852 52.2433 34.5179 52.273 34.4642C52.3099 34.3976 52.3381 34.3039 52.3381 34.1924C52.3381 34.081 52.3099 33.9872 52.273 33.9207C52.2433 33.867 52.1923 33.7997 52.0708 33.7295C52.0708 33.7295 36.8115 24.8882 31.8071 22.0304C26.8027 19.1726 25.0167 20.0882 25.0167 20.0882C25.5059 19.8058 26.0091 19.5128 26.4978 19.2282L26.4979 19.2282L26.4982 19.228C27.4319 18.6844 28.3133 18.1712 28.9454 17.82C30.4928 16.9602 32.4603 16.8526 34.2124 17.8642L54.4762 29.5634C58.0396 31.6207 58.0396 36.7641 54.4761 38.8215L31.0049 52.3726ZM31.0049 46.8178L45.9296 38.201L31.0049 29.5842L31.0049 46.8178Z" fill="url(#paint0_linear_1526_56218)"/>
<defs>
<linearGradient id="paint0_linear_1526_56218" x1="57.7458" y1="22.1221" x2="14.9799" y2="46.6036" gradientUnits="userSpaceOnUse">
<stop stop-color="#E09F87"/>
<stop offset="1" stop-color="#9D634D"/>
</linearGradient>
</defs>
</svg>
